# xmcd
#
# Track frame offsets:
#	150
#	19432
#	39367
#	57830
#	73747
#	92192
#	113725
#	132870
#	151265
#	170562
#	190505
#	208942
#	224887
#	243232
#	264685
#	283805
#
# Disc length: 4028 seconds
#
# Revision: 1
# Processed by: cddbd v1.5.2PL0 Copyright (c) Steve Scherf et al.
# Submitted via: audiograbber 1.83.01
#
DISCID=f50fba10
DTITLE=Power Picks - 3063
DYEAR=1900
DGENRE=
TTITLE0=Love is all that really matters
TTITLE1=Love Working on You
TTITLE2=Two Pina Colodas
TTITLE3=Just Some Love
TTITLE4=Matches
TTITLE5=One of these Days
TTITLE6=Bad Day to Let you go
TTITLE7=I might even Quit Lovin you
TTITLE8=Love is all that really matters
TTITLE9=Love Working on you
TTITLE10=Two Pina Coladas
TTITLE11=Just Some Love
TTITLE12=Matches
TTITLE13=One Of these Days
TTITLE14=Bad Day to Let you go
TTITLE15=I might even Quit Lovin you
EXTD=
EXTT0=
EXTT1=
EXTT2=
EXTT3=
EXTT4=
EXTT5=
EXTT6=
EXTT7=
EXTT8=
EXTT9=
EXTT10=
EXTT11=
EXTT12=
EXTT13=
EXTT14=
EXTT15=
PLAYORDER=
